<svg viewBox="0 0 1080 1080" fill="none" xmlns="http://www.w3.org/2000/svg">        <defs>    <filter id="filter" x="-20%" y="-20%" width="140%" height="140%" filterUnits="objectBoundingBox" primitiveUnits="userSpaceOnUse" color-interpolation-filters="linearRGB">      <feMorphology operator="dilate" radius="20 20" in="SourceAlpha" result="morphology"/>      <feFlood flood-color="#ffffff" flood-opacity="1" result="flood"/>      <feComposite in="flood" in2="morphology" operator="in" result="composite"/>      <feMerge result="merge">            <feMergeNode in="composite" result="mergeNode"/>        <feMergeNode in="SourceGraphic" result="mergeNode1"/>        </feMerge>    </filter>  </defs>        <g id="notion-avatar" filter="url(#filter)">          <g id="notion-avatar-face" fill="#ffffff">            <title>Face/ 10</title>    <g id="Face/-10" stroke="none" stroke-width="1" fill-rule="evenodd" stroke-linecap="round" stroke-linejoin="round">        <path d="M532,379 C664.54834,379 772,486.45166 772,619 C772,751.54834 684.54834,899 592,899 C535.13263,899 351.668898,801.612202 313.752775,718.980575 L313.322946,718.989282 L312,719 C267.81722,719 232,683.18278 232,639 C232,599.134956 261.158843,566.080325 299.312086,560.00055 C325.599297,455.979213 419.809919,379 532,379 Z M295.858895,624.545187 L304.141105,655.454813" id="Path" stroke="#000000" stroke-width="24"/>    </g>      </g><g id="notion-avatar-nose">            <title>Nose/ 9</title>    <g id="Nose/-9" stroke="none" stroke-width="1" fill="none" fill-rule="evenodd" stroke-linecap="round" stroke-linejoin="round">        <path d="M631,694.380659 C663.848549,704.811956 684.630284,697.576454 693.345205,672.674154 C706.417587,635.320703 637.033407,606.392531 660.161467,579" id="Path" stroke="#000000" stroke-width="16"/>    </g>      </g><g id="notion-avatar-mouth">        <g id="Mouth/ 18"><g id="Group"><path id="Path" fill-rule="evenodd" clip-rule="evenodd" d="M557 770.275C557 770.275 585.239 770.788 599.667 769.145C614.094 767.502 629.872 761.905 636.345 761.24C642.818 760.574 648.322 764.063 649.819 764.063C651.316 764.063 655.058 760.675 662.544 761.24C670.029 761.804 685 770.275 685 770.275C685 770.275 667.784 774.792 640.836 774.792C590.684 776.486 557 770.275 557 770.275Z" stroke="black" stroke-width="8" stroke-linecap="round" stroke-linejoin="round"/><path id="Path_2" d="M682 771C682 771 675.538 776.607 672 779C666.765 782.54 661.978 785.894 651 786C642.504 786.082 624.027 780.984 613 779C600.148 776.688 563 771 563 771" stroke="black" stroke-width="8" stroke-linecap="round" stroke-linejoin="round"/></g></g>      </g><g id="notion-avatar-eyes">            <title>Eyes/ 3</title>    <g id="Eyes/-3" stroke="none" stroke-width="1" fill="none" fill-rule="evenodd" stroke-linecap="round" stroke-linejoin="round">        <g id="Group" transform="translate(533.944954, 540.730159)" stroke="#000000" stroke-width="12">            <path d="M146.275229,-1.43884904e-13 C159.958467,9.35202544 170.38232,14.8216846 177.546789,16.4089776 C184.711258,17.9962705 196.232359,17.3885306 212.110092,14.5857578" id="Path" transform="translate(179.192661, 8.634921) scale(-1, 1) translate(-179.192661, -8.634921) "/>            <path d="M6.39488462e-14,-1.43884904e-13 C13.6832373,9.35202544 24.1070905,14.8216846 31.2715596,16.4089776 C38.4360288,17.9962705 49.9571297,17.3885306 65.8348624,14.5857578" id="Path"/>        </g>    </g>      </g><g id="notion-avatar-eyebrows">        <g id="Eyebrows/ 15"><g id="Group"><path id="Path" fill-rule="evenodd" clip-rule="evenodd" d="M622.289 506.124C622.289 506.124 622.95 493.517 619.376 491.698C615.802 489.88 558.683 477.099 542.118 478.134C525.552 479.169 502.752 494.15 502.752 494.15C502.752 494.15 526.26 485.069 547.179 487.167C568.098 489.265 622.289 506.124 622.289 506.124Z" fill="black" stroke="black" stroke-width="4" stroke-linecap="round" stroke-linejoin="round"/><path id="Path_2" fill-rule="evenodd" clip-rule="evenodd" d="M654.711 506.124C654.711 506.124 654.05 493.517 657.624 491.698C661.198 489.88 718.317 477.099 734.882 478.134C751.448 479.169 774.248 494.15 774.248 494.15C774.248 494.15 750.74 485.069 729.821 487.167C708.902 489.265 654.711 506.124 654.711 506.124Z" fill="black" stroke="black" stroke-width="4" stroke-linecap="round" stroke-linejoin="round"/></g></g>      </g><g id="notion-avatar-glasses">            <title>Glasses/ 7</title>    <g id="Glasses/-7" stroke="none" stroke-width="1" fill="none" fill-rule="evenodd" stroke-linecap="round" stroke-linejoin="round">        <g id="Group" transform="translate(289.000000, 502.000000)" fill="#000000" stroke="#000000" stroke-width="4">            <path d="M339.740368,39.6303745 C323.440763,83.0959855 305.148598,104 266.642657,104 C226.661085,104 208.819095,87.634841 206.637074,34.1753215 C206.548706,32.0103005 204.003015,29.8282793 199,27.6292579 L199,6.90005646 C238.696939,1.25810378 267.426885,-0.923917428 285.189838,0.353992852 C297.612079,1.2476793 312.018598,4.36213391 328.409394,9.69735669 C333.107339,11.2265431 340.521032,12.1124607 350.650474,12.3551095 L351.336909,12.3375684 C361.115498,12.0718595 368.30038,11.1917889 372.891553,9.69735669 C389.282349,4.36213391 403.688868,1.2476793 416.11111,0.353992852 C433.874063,-0.923917428 462.604008,1.25810378 502.300947,6.90005646 L502.300947,6.90005646 L502.300947,27.6292579 C497.297933,29.8282793 494.752241,32.0103005 494.663873,34.1753215 C492.481852,87.634841 474.639862,104 434.65829,104 C396.15235,104 377.860184,83.0959855 361.56058,39.6303745 C359.378558,33.8116513 355.741856,30.9022897 350.650474,30.9022897 L350.650474,30.9022897 C345.559091,30.9022897 341.922389,33.8116513 339.740368,39.6303745 Z" id="Combined-Shape"/>            <polygon id="Path" points="199 7 4 39 0 48 199 28"/>        </g>    </g>      </g><g id="notion-avatar-hair">        <g id="Hairstyle/ 42"><path id="Path" fill-rule="evenodd" clip-rule="evenodd" d="M524 224C538 226.667 547.667 230.667 553 236C558.333 241.333 562.667 250.667 566 264C566 264 582 243 584 238C586 233 586 210 586 210C586 210 594.605 216.518 596 227C597.395 237.482 595.814 237.139 594 249C604.667 254.333 615.121 249.013 621.788 243.013C628.455 237.013 632.788 229.68 634.788 221.013C641.017 224.834 645.683 229.168 648.788 234.013C651.893 238.859 655.153 246.896 658.567 258.125C665.419 255.141 669.949 252.207 672.159 249.323C674.368 246.439 675.967 241.372 676.956 234.121C678.787 238.211 679.853 241.411 680.154 243.722C680.455 246.033 678.212 271.784 677 281C682.536 279.104 686.703 278.897 692 275C699.333 269.605 705 261 705 261C705 261 705.85 275.428 705 285C704.15 294.572 700.141 315.734 700.141 315.734C700.141 315.734 731.918 310.132 734.788 297.013C736.702 288.268 734.247 279.588 723 275C737 275 745.471 277.269 752.108 284.529C762.064 295.42 757.788 309.013 750.788 318.013C746.121 324.013 740.788 328.347 734.788 331.013C749.943 334.967 759.563 333.71 763.646 327.244L763.788 327.013C767.788 320.347 776.121 312.68 788.788 304.013L788.449 305.898C783.014 336.438 782.359 355.186 786.486 362.142C786.486 362.142 792.952 358.462 795 356C800.369 349.546 801.669 345.497 801 352C799.575 365.855 787.832 385.38 780.102 390.538C775.593 393.546 768.502 395.556 758.828 396.567C757.847 398.597 756.809 400.567 755.717 402.478C758.235 408.042 764.663 410.216 775 409C788.262 407.439 798.262 400.106 805 387C805 399.667 799.333 411 788 421L786.985 421.89C770.483 436.271 757.694 442.784 734 438C729.85 437.162 726.25 436.092 723.2 434.79C715.672 438.987 707.271 442.25 698 444.579L695.953 445.088C686.406 447.438 672.404 450.562 656.009 453.474C654.179 458.121 652.083 462.012 648 464C641.181 467.32 630.383 465.75 615.605 459.288C613.208 459.546 610.797 459.789 608.377 460.014L606.958 460.875C595.06 468.16 589.408 473.201 590 476C591.225 481.788 600.892 485.788 619 488L617.263 488.404C601.757 491.961 589.67 493.494 581 493C572.009 492.488 562.158 489.54 551.447 484.154L549.835 484.692C538.795 488.416 532.85 491.185 532 493C529.814 497.668 528.147 502.335 527 507L495.482 484.154C487.649 483.633 478.821 480.915 469 476C459.179 471.085 452.549 466.069 449.112 460.95C431.497 465.117 421.104 470.185 417.932 476.153C413.174 485.105 409.432 486.597 421 492C428.712 495.602 439.905 495.602 454.579 492L453.239 493.008C438.585 503.948 423.678 504.443 412 503C400.322 501.557 388.999 489.606 388.999 489.606L389.407 491.845C391.379 502.861 392.365 511.159 392.365 516.739C392.365 528.233 383.924 572.725 367.044 650.214L366 655L328.117 564.825H287.146C271.78 507.747 268.106 468.653 276.123 447.542C283.951 426.927 303.884 411.158 335.92 400.236L334 397C326.231 383.602 339.512 379.865 343.843 357.79C348.173 335.715 357.788 343.013 372.788 323.013C372.788 323.013 393 295 433 275C473 255 504.651 265.527 521.788 264.013C538.926 262.5 543 272 543 253C543 240.333 536.667 230.667 524 224Z" fill="black" stroke="black" stroke-width="12" stroke-linecap="round" stroke-linejoin="round"/></g>      </g><g id="notion-avatar-accessories">            <title>Accessories/ 0</title>    <g id="Accessories/-0" stroke="none" stroke-width="1" fill="none" fill-rule="evenodd"/>      </g><g id="notion-avatar-details">            <title>Details/ 0</title>    <g id="Details/-0" stroke="none" stroke-width="1" fill="none" fill-rule="evenodd"/>      </g><g id="notion-avatar-beard">            <title>Beard/ 0</title>    <g id="Beard/-0" stroke="none" stroke-width="1" fill="none" fill-rule="evenodd"/>      </g>        </g>        </svg>